<svg xmlns="http://www.w3.org/2000/svg" xmlns:xlink="http://www.w3.org/1999/xlink" contentStyleType="text/css" data-diagram-type="DESCRIPTION" height="1594px" preserveAspectRatio="none" style="width:538px;height:1594px;background:#FFFFFF;" version="1.1" viewBox="0 0 538 1594" width="538px" zoomAndPan="magnify"><defs/><g><!--cluster Syst?me RH--><g class="cluster" data-qualified-name="Syst.me RH" data-source-line="10" id="ent0006"><rect fill="none" height="1581" rx="2.5" ry="2.5" style="stroke:#181818;stroke-width:1;" width="307.15" x="225.47" y="7"/><text fill="#000000" font-family="sans-serif" font-size="14" font-weight="bold" lengthAdjust="spacing" textLength="95.1836" x="331.4532" y="21.9951">Système RH</text></g><!--cluster Fonctionnalit?s Utilisateur--><g class="cluster" data-qualified-name="Syst.me RH.Fonctionnalit.s Utilisateur" data-source-line="15" id="ent0007"><rect fill="none" height="760" rx="2.5" ry="2.5" style="stroke:#181818;stroke-width:1;" width="225.11" x="265.99" y="50"/><text fill="#000000" font-family="sans-serif" font-size="14" font-weight="bold" lengthAdjust="spacing" textLength="210.2256" x="273.4322" y="64.9951">Fonctionnalités Utilisateur</text></g><!--cluster Fonctionnalit?s Administration--><g class="cluster" data-qualified-name="Syst.me RH.Fonctionnalit.s Administration" data-source-line="34" id="ent0018"><rect fill="none" height="324" rx="2.5" ry="2.5" style="stroke:#181818;stroke-width:1;" width="259.15" x="249.47" y="1240"/><text fill="#000000" font-family="sans-serif" font-size="14" font-weight="bold" lengthAdjust="spacing" textLength="244.3916" x="256.8492" y="1254.9951">Fonctionnalités Administration</text></g><!--cluster Fonctionnalit?s RH--><g class="cluster" data-qualified-name="Syst.me RH.Fonctionnalit.s RH" data-source-line="45" id="ent0023"><rect fill="none" height="382" rx="2.5" ry="2.5" style="stroke:#181818;stroke-width:1;" width="195.36" x="280.87" y="834"/><text fill="#000000" font-family="sans-serif" font-size="14" font-weight="bold" lengthAdjust="spacing" textLength="149.4268" x="303.8366" y="848.9951">Fonctionnalités RH</text></g><!--entity UC_Connexion--><g class="entity" data-qualified-name="Syst.me RH.Fonctionnalit.s Utilisateur.UC_Connexion" data-source-line="17" id="ent0008"><ellipse cx="378.5465" cy="182.9993" fill="#F1F1F1" rx="64.4965" ry="15.2993" style="stroke:#181818;stroke-width:0.5;"/><text fill="#000000" font-family="sans-serif" font-size="14" lengthAdjust="spacing" textLength="92.1279" x="332.4825" y="187.6477">Se connecter</text></g><!--entity UC_Auth--><g class="entity" data-qualified-name="Syst.me RH.Fonctionnalit.s Utilisateur.UC_Auth" data-source-line="18" id="ent0009"><ellipse cx="378.5469" cy="101.0014" fill="#F1F1F1" rx="65.6569" ry="15.5314" style="stroke:#181818;stroke-width:0.5;"/><text fill="#000000" font-family="sans-serif" font-size="14" lengthAdjust="spacing" textLength="95.2041" x="330.9448" y="105.6498">S’authentifier</text></g><!--entity UC_Deconnexion--><g class="entity" data-qualified-name="Syst.me RH.Fonctionnalit.s Utilisateur.UC_Deconnexion" data-source-line="19" id="ent0010"><ellipse cx="378.5471" cy="776.9994" fill="#F1F1F1" rx="71.2971" ry="16.6594" style="stroke:#181818;stroke-width:0.5;"/><text fill="#000000" font-family="sans-serif" font-size="14" lengthAdjust="spacing" textLength="109.6279" x="323.7332" y="781.6479">Se déconnecter</text></g><!--entity UC_ConsulterActualites--><g class="entity" data-qualified-name="Syst.me RH.Fonctionnalit.s Utilisateur.UC_ConsulterActualites" data-source-line="21" id="ent0011"><ellipse cx="378.5516" cy="251.9963" fill="#F1F1F1" rx="83.9816" ry="19.1963" style="stroke:#181818;stroke-width:0.5;"/><text fill="#000000" font-family="sans-serif" font-size="14" lengthAdjust="spacing" textLength="139.9727" x="308.5652" y="256.6447">Consulter actualités</text></g><!--entity UC_ConsulterInfosLegales--><g class="entity" data-qualified-name="Syst.me RH.Fonctionnalit.s Utilisateur.UC_ConsulterInfosLegales" data-source-line="22" id="ent0012"><ellipse cx="378.5457" cy="326.9971" fill="#F1F1F1" rx="92.4857" ry="20.8971" style="stroke:#181818;stroke-width:0.5;"/><text fill="#000000" font-family="sans-serif" font-size="14" lengthAdjust="spacing" textLength="159.3457" x="298.8728" y="331.6456">Consulter infos légales</text></g><!--entity UC_ConsulterFormations--><g class="entity" data-qualified-name="Syst.me RH.Fonctionnalit.s Utilisateur.UC_ConsulterFormations" data-source-line="23" id="ent0013"><ellipse cx="378.5455" cy="403.0011" fill="#F1F1F1" rx="87.1055" ry="19.8211" style="stroke:#181818;stroke-width:0.5;"/><text fill="#000000" font-family="sans-serif" font-size="14" lengthAdjust="spacing" textLength="147.1572" x="304.9669" y="407.6495">Consulter formations</text></g><!--entity UC_ConsulterConcours--><g class="entity" data-qualified-name="Syst.me RH.Fonctionnalit.s Utilisateur.UC_ConsulterConcours" data-source-line="24" id="ent0014"><ellipse cx="378.5501" cy="477" fill="#F1F1F1" rx="81.8001" ry="18.76" style="stroke:#181818;stroke-width:0.5;"/><text fill="#000000" font-family="sans-serif" font-size="14" lengthAdjust="spacing" textLength="134.9004" x="311.0999" y="481.6485">Consulter concours</text></g><!--entity UC_AccederContacts--><g class="entity" data-qualified-name="Syst.me RH.Fonctionnalit.s Utilisateur.UC_AccederContacts" data-source-line="25" id="ent0015"><ellipse cx="378.5504" cy="550.0021" fill="#F1F1F1" rx="86.4604" ry="19.6921" style="stroke:#181818;stroke-width:0.5;"/><text fill="#000000" font-family="sans-serif" font-size="14" lengthAdjust="spacing" textLength="145.6807" x="305.7101" y="554.6505">Accéder contacts RH</text></g><!--entity UC_ConsulterContenus--><g class="entity" data-qualified-name="Syst.me RH.Fonctionnalit.s Utilisateur.UC_ConsulterContenus" data-source-line="27" id="ent0016"><ellipse cx="378.5478" cy="625.9956" fill="#F1F1F1" rx="93.0278" ry="21.0056" style="stroke:#181818;stroke-width:0.5;"/><text fill="#000000" font-family="sans-serif" font-size="14" lengthAdjust="spacing" textLength="160.5625" x="298.2666" y="630.644">Consulter contenus RH</text></g><!--entity UC_Telecharger--><g class="entity" data-qualified-name="Syst.me RH.Fonctionnalit.s Utilisateur.UC_Telecharger" data-source-line="28" id="ent0017"><ellipse cx="378.5542" cy="704.0008" fill="#F1F1F1" rx="95.5542" ry="21.5108" style="stroke:#181818;stroke-width:0.5;"/><text fill="#000000" font-family="sans-serif" font-size="14" lengthAdjust="spacing" textLength="166.209" x="295.4497" y="708.6493">Télécharger documents</text></g><!--entity UC_GererUsers--><g class="entity" data-qualified-name="Syst.me RH.Fonctionnalit.s Administration.UC_GererUsers" data-source-line="36" id="ent0019"><ellipse cx="378.551" cy="1292.9982" fill="#F1F1F1" rx="76.341" ry="17.6682" style="stroke:#181818;stroke-width:0.5;"/><text fill="#000000" font-family="sans-serif" font-size="14" lengthAdjust="spacing" textLength="121.9668" x="317.5676" y="1297.6466">Gérer utilisateurs</text></g><!--entity UC_GererRoles--><g class="entity" data-qualified-name="Syst.me RH.Fonctionnalit.s Administration.UC_GererRoles" data-source-line="37" id="ent0020"><ellipse cx="378.5486" cy="1368.9977" fill="#F1F1F1" rx="102.6886" ry="22.9377" style="stroke:#181818;stroke-width:0.5;"/><text fill="#000000" font-family="sans-serif" font-size="14" lengthAdjust="spacing" textLength="181.9658" x="287.5657" y="1373.6462">Gérer rôles &amp; permissions</text></g><!--entity UC_Parametrer--><g class="entity" data-qualified-name="Syst.me RH.Fonctionnalit.s Administration.UC_Parametrer" data-source-line="38" id="ent0021"><ellipse cx="378.5543" cy="1450.0049" fill="#F1F1F1" rx="105.0743" ry="23.4149" style="stroke:#181818;stroke-width:0.5;"/><text fill="#000000" font-family="sans-serif" font-size="14" lengthAdjust="spacing" textLength="187.1816" x="284.9635" y="1454.6533">Paramétrer fonctionnalités</text></g><!--entity UC_AdminSys--><g class="entity" data-qualified-name="Syst.me RH.Fonctionnalit.s Administration.UC_AdminSys" data-source-line="39" id="ent0022"><ellipse cx="378.5513" cy="1528.0023" fill="#F1F1F1" rx="86.3113" ry="19.6623" style="stroke:#181818;stroke-width:0.5;"/><text fill="#000000" font-family="sans-serif" font-size="14" lengthAdjust="spacing" textLength="145.3389" x="305.8819" y="1532.6507">Administrer système</text></g><!--entity UC_GererContenus--><g class="entity" data-qualified-name="Syst.me RH.Fonctionnalit.s RH.UC_GererContenus" data-source-line="47" id="ent0024"><ellipse cx="378.547" cy="887.9994" fill="#F1F1F1" rx="80.997" ry="18.5994" style="stroke:#181818;stroke-width:0.5;"/><text fill="#000000" font-family="sans-serif" font-size="14" lengthAdjust="spacing" textLength="133.0205" x="312.0368" y="892.6478">Gérer contenus RH</text></g><!--entity UC_CreerContenu--><g class="entity" data-qualified-name="Syst.me RH.Fonctionnalit.s RH.UC_CreerContenu" data-source-line="48" id="ent0025"><ellipse cx="378.5474" cy="1183.9955" fill="#F1F1F1" rx="67.4774" ry="15.8955" style="stroke:#181818;stroke-width:0.5;"/><text fill="#000000" font-family="sans-serif" font-size="14" lengthAdjust="spacing" textLength="99.9482" x="328.5733" y="1188.6439">Créer contenu</text></g><!--entity UC_ModifierContenu--><g class="entity" data-qualified-name="Syst.me RH.Fonctionnalit.s RH.UC_ModifierContenu" data-source-line="49" id="ent0026"><ellipse cx="378.5479" cy="1116.0036" fill="#F1F1F1" rx="74.7179" ry="17.3436" style="stroke:#181818;stroke-width:0.5;"/><text fill="#000000" font-family="sans-serif" font-size="14" lengthAdjust="spacing" textLength="118.043" x="319.5264" y="1120.652">Modifier contenu</text></g><!--entity UC_PublierContenu--><g class="entity" data-qualified-name="Syst.me RH.Fonctionnalit.s RH.UC_PublierContenu" data-source-line="50" id="ent0027"><ellipse cx="378.5502" cy="1047.002" fill="#F1F1F1" rx="71.3602" ry="16.672" style="stroke:#181818;stroke-width:0.5;"/><text fill="#000000" font-family="sans-serif" font-size="14" lengthAdjust="spacing" textLength="109.7852" x="323.6577" y="1051.6505">Publier contenu</text></g><!--entity UC_SupprimerContenu--><g class="entity" data-qualified-name="Syst.me RH.Fonctionnalit.s RH.UC_SupprimerContenu" data-source-line="51" id="ent0028"><ellipse cx="378.5502" cy="976.996" fill="#F1F1F1" rx="81.6802" ry="18.736" style="stroke:#181818;stroke-width:0.5;"/><text fill="#000000" font-family="sans-serif" font-size="14" lengthAdjust="spacing" textLength="134.6201" x="311.2401" y="981.6445">Supprimer contenu</text></g><!--entity NonAuth--><g class="entity" data-qualified-name="NonAuth" data-source-line="5" id="ent0002"><ellipse cx="60.2363" cy="320.35" fill="#F1F1F1" rx="8" ry="8" style="stroke:#181818;stroke-width:0.5;"/><path d="M60.2363,328.35 L60.2363,355.35 M47.2363,336.35 L73.2363,336.35 M60.2363,355.35 L47.2363,370.35 M60.2363,355.35 L73.2363,370.35" fill="none" style="stroke:#181818;stroke-width:0.5;"/><text fill="#000000" font-family="sans-serif" font-size="14" lengthAdjust="spacing" textLength="108.4727" x="6" y="384.8451">Non authentifié</text></g><!--entity Agent--><g class="entity" data-qualified-name="Agent" data-source-line="6" id="ent0003"><ellipse cx="60.2397" cy="674.35" fill="#F1F1F1" rx="8" ry="8" style="stroke:#181818;stroke-width:0.5;"/><path d="M60.2397,682.35 L60.2397,709.35 M47.2397,690.35 L73.2397,690.35 M60.2397,709.35 L47.2397,724.35 M60.2397,709.35 L73.2397,724.35" fill="none" style="stroke:#181818;stroke-width:0.5;"/><text fill="#000000" font-family="sans-serif" font-size="14" lengthAdjust="spacing" textLength="41.4395" x="39.52" y="738.8451">Agent</text></g><!--entity RH--><g class="entity" data-qualified-name="RH" data-source-line="7" id="ent0004"><ellipse cx="60.2323" cy="961.35" fill="#F1F1F1" rx="8" ry="8" style="stroke:#181818;stroke-width:0.5;"/><path d="M60.2323,969.35 L60.2323,996.35 M47.2323,977.35 L73.2323,977.35 M60.2323,996.35 L47.2323,1011.35 M60.2323,996.35 L73.2323,1011.35" fill="none" style="stroke:#181818;stroke-width:0.5;"/><text fill="#000000" font-family="sans-serif" font-size="14" lengthAdjust="spacing" textLength="66.1445" x="27.16" y="1025.8451">Agent RH</text></g><!--entity Admin--><g class="entity" data-qualified-name="Admin" data-source-line="8" id="ent0005"><ellipse cx="60.2318" cy="1389.35" fill="#F1F1F1" rx="8" ry="8" style="stroke:#181818;stroke-width:0.5;"/><path d="M60.2318,1397.35 L60.2318,1424.35 M47.2318,1405.35 L73.2318,1405.35 M60.2318,1424.35 L47.2318,1439.35 M60.2318,1424.35 L73.2318,1439.35" fill="none" style="stroke:#181818;stroke-width:0.5;"/><text fill="#000000" font-family="sans-serif" font-size="14" lengthAdjust="spacing" textLength="104.6035" x="7.93" y="1453.8451">Administrateur</text></g><!--link NonAuth to UC_Connexion--><g class="link" data-entity-1="ent0002" data-entity-2="ent0008" data-link-type="dependency" data-source-line="55" id="lnk29"><path d="M94.86,311.57 C124.13,280.62 169.32,238.54 217.47,215 C248.28,199.94 279.7851,192.7814 310.7051,188.5614" fill="none" id="NonAuth-to-UC_Connexion" style="stroke:#181818;stroke-width:1;"/><polygon fill="#181818" points="316.65,187.75,307.1918,185.0038,311.6959,188.4261,308.2736,192.9303,316.65,187.75" style="stroke:#181818;stroke-width:1;"/></g><!--link NonAuth to UC_ConsulterActualites--><g class="link" data-entity-1="ent0002" data-entity-2="ent0011" data-link-type="dependency" data-source-line="56" id="lnk30"><path d="M114.86,327.79 C124.69,323.8 134.87,319.74 144.47,316 C176.71,303.46 184.33,298.92 217.47,289 C249.03,279.56 278.8364,272.372 308.4764,265.942" fill="none" id="NonAuth-to-UC_ConsulterActualites" style="stroke:#181818;stroke-width:1;"/><polygon fill="#181818" points="314.34,264.67,304.6966,262.669,309.4537,265.73,306.3926,270.4871,314.34,264.67" style="stroke:#181818;stroke-width:1;"/></g><!--link NonAuth to UC_ConsulterInfosLegales--><g class="link" data-entity-1="ent0002" data-entity-2="ent0012" data-link-type="dependency" data-source-line="57" id="lnk31"><path d="M114.89,346.1 C162.75,342.62 227.7258,337.8952 283.8258,333.8152" fill="none" id="NonAuth-to-UC_ConsulterInfosLegales" style="stroke:#181818;stroke-width:1;"/><polygon fill="#181818" points="289.81,333.38,280.5436,330.0434,284.8232,333.7427,281.1239,338.0223,289.81,333.38" style="stroke:#181818;stroke-width:1;"/></g><!--link NonAuth to UC_ConsulterFormations--><g class="link" data-entity-1="ent0002" data-entity-2="ent0013" data-link-type="dependency" data-source-line="58" id="lnk32"><path d="M114.89,358.99 C167.86,367.87 243.2126,380.488 301.3126,390.228" fill="none" id="NonAuth-to-UC_ConsulterFormations" style="stroke:#181818;stroke-width:1;"/><polygon fill="#181818" points="307.23,391.22,299.0152,385.787,302.2988,390.3933,297.6925,393.6769,307.23,391.22" style="stroke:#181818;stroke-width:1;"/></g><!--link NonAuth to UC_ConsulterConcours--><g class="link" data-entity-1="ent0002" data-entity-2="ent0014" data-link-type="dependency" data-source-line="59" id="lnk33"><path d="M114.92,386.22 C144.18,404.57 181.64,425.9 217.47,440 C247.2,451.7 275.6789,459.0513 304.9189,464.9613" fill="none" id="NonAuth-to-UC_ConsulterConcours" style="stroke:#181818;stroke-width:1;"/><polygon fill="#181818" points="310.8,466.15,302.7708,460.4463,305.8991,465.1594,301.1859,468.2877,310.8,466.15" style="stroke:#181818;stroke-width:1;"/></g><!--link NonAuth to UC_AccederContacts--><g class="link" data-entity-1="ent0002" data-entity-2="ent0015" data-link-type="dependency" data-source-line="60" id="lnk34"><path d="M69.25,388.5 C79.57,427.74 101.53,487.11 144.47,518 C188.16,549.42 242.61,556.9887 291,556.9187" fill="none" id="NonAuth-to-UC_AccederContacts" style="stroke:#181818;stroke-width:1;"/><polygon fill="#181818" points="297,556.91,287.9942,552.923,292,556.9172,288.0058,560.923,297,556.91" style="stroke:#181818;stroke-width:1;"/></g><!--link Agent to UC_ConsulterContenus--><g class="link" data-entity-1="ent0003" data-entity-2="ent0016" data-link-type="dependency" data-source-line="62" id="lnk35"><path d="M81.36,698.21 C98.19,693.42 122.83,686.54 144.47,681 C200.56,666.64 258.7416,652.9701 305.4816,642.2601" fill="none" id="Agent-to-UC_ConsulterContenus" style="stroke:#181818;stroke-width:1;"/><polygon fill="#181818" points="311.33,640.92,301.664,639.0312,306.4563,642.0368,303.4508,646.8291,311.33,640.92" style="stroke:#181818;stroke-width:1;"/></g><!--link Agent to UC_Telecharger--><g class="link" data-entity-1="ent0003" data-entity-2="ent0017" data-link-type="dependency" data-source-line="63" id="lnk36"><path d="M81.02,704 C120.58,704 205.72,704 276.59,704" fill="none" id="Agent-to-UC_Telecharger" style="stroke:#181818;stroke-width:1;"/><polygon fill="#181818" points="282.59,704,273.59,700,277.59,704,273.59,708,282.59,704" style="stroke:#181818;stroke-width:1;"/></g><!--link Agent to UC_Deconnexion--><g class="link" data-entity-1="ent0003" data-entity-2="ent0010" data-link-type="dependency" data-source-line="64" id="lnk37"><path d="M81.41,709.28 C111.12,717 168.44,731.68 217.47,743 C252.77,751.15 286.7346,758.4037 317.8446,764.8437" fill="none" id="Agent-to-UC_Deconnexion" style="stroke:#181818;stroke-width:1;"/><polygon fill="#181818" points="323.72,766.06,315.7177,760.3187,318.8238,765.0465,314.096,768.1526,323.72,766.06" style="stroke:#181818;stroke-width:1;"/></g><!--link RH to UC_GererContenus--><g class="link" data-entity-1="ent0004" data-entity-2="ent0024" data-link-type="dependency" data-source-line="66" id="lnk38"><path d="M93.7,995.52 C126.84,998.22 177.78,996.79 209.47,969 C219.2,960.47 208.51,950.34 217.47,941 C240.68,916.81 269.3034,905.0081 300.3134,897.8581" fill="none" id="RH-to-UC_GererContenus" style="stroke:#181818;stroke-width:1;"/><polygon fill="#181818" points="306.16,896.51,296.4914,894.6343,301.2878,897.6334,298.2888,902.4298,306.16,896.51" style="stroke:#181818;stroke-width:1;"/></g><!--link Admin to UC_GererUsers--><g class="link" data-entity-1="ent0005" data-entity-2="ent0019" data-link-type="dependency" data-source-line="68" id="lnk39"><path d="M112.76,1384.03 C142.31,1365.36 180.73,1343.33 217.47,1329 C248.26,1316.99 278.1169,1309.5974 308.0169,1303.8774" fill="none" id="Admin-to-UC_GererUsers" style="stroke:#181818;stroke-width:1;"/><polygon fill="#181818" points="313.91,1302.75,304.3187,1300.5123,308.9991,1303.6895,305.8219,1308.3698,313.91,1302.75" style="stroke:#181818;stroke-width:1;"/></g><!--link Admin to UC_GererRoles--><g class="link" data-entity-1="ent0005" data-entity-2="ent0020" data-link-type="dependency" data-source-line="69" id="lnk40"><path d="M112.76,1410.86 C161.69,1403.12 230.1836,1392.297 287.6736,1383.207" fill="none" id="Admin-to-UC_GererRoles" style="stroke:#181818;stroke-width:1;"/><polygon fill="#181818" points="293.6,1382.27,284.0857,1379.7247,288.6614,1383.0509,285.3351,1387.6265,293.6,1382.27" style="stroke:#181818;stroke-width:1;"/></g><!--link Admin to UC_Parametrer--><g class="link" data-entity-1="ent0005" data-entity-2="ent0021" data-link-type="dependency" data-source-line="70" id="lnk41"><path d="M112.76,1424.05 C158.36,1428.52 220.1386,1434.5751 275.6786,1440.0151" fill="none" id="Admin-to-UC_Parametrer" style="stroke:#181818;stroke-width:1;"/><polygon fill="#181818" points="281.65,1440.6,273.0828,1435.7417,276.6738,1440.1126,272.3029,1443.7036,281.65,1440.6" style="stroke:#181818;stroke-width:1;"/></g><!--link Admin to UC_AdminSys--><g class="link" data-entity-1="ent0005" data-entity-2="ent0022" data-link-type="dependency" data-source-line="71" id="lnk42"><path d="M112.93,1446.07 C142.85,1460.91 181.58,1478.73 217.47,1491 C247.3,1501.2 275.3302,1508.247 304.2302,1514.367" fill="none" id="Admin-to-UC_AdminSys" style="stroke:#181818;stroke-width:1;"/><polygon fill="#181818" points="310.1,1515.61,302.1239,1509.8322,305.2085,1514.5741,300.4666,1517.6587,310.1,1515.61" style="stroke:#181818;stroke-width:1;"/></g><!--link UC_Connexion to UC_Auth--><g class="link" data-entity-1="ent0008" data-entity-2="ent0009" data-link-type="dependency" data-source-line="74" id="lnk43"><path d="M378.55,167.58 C378.55,153.1 378.55,137.55 378.55,122.91" fill="none" id="UC_Connexion-to-UC_Auth" style="stroke:#181818;stroke-width:1;stroke-dasharray:7,7;"/><polygon fill="#181818" points="378.55,116.91,374.55,125.91,378.55,121.91,382.55,125.91,378.55,116.91" style="stroke:#181818;stroke-width:1;"/><text fill="#000000" font-family="sans-serif" font-size="13" lengthAdjust="spacing" textLength="63.0068" x="335.55" y="146.6869">«include»</text></g><!--link UC_ConsulterContenus to UC_Auth--><g class="link" data-entity-1="ent0016" data-entity-2="ent0009" data-link-type="dependency" data-source-line="75" id="lnk44"><path d="M288.4,620.57 C262.85,614.99 236.77,604.91 217.47,587 C175.53,548.09 186.8,521.02 177.9,464.5 C155.98,325.34 126.3,257.4 217.47,150 C241.21,122.03 274.4623,110.6386 308.2323,105.3486" fill="none" id="UC_ConsulterContenus-to-UC_Auth" style="stroke:#181818;stroke-width:1;stroke-dasharray:7,7;"/><polygon fill="#181818" points="314.16,104.42,304.6494,101.861,309.2202,105.1938,305.8875,109.7647,314.16,104.42" style="stroke:#181818;stroke-width:1;"/><text fill="#000000" font-family="sans-serif" font-size="13" lengthAdjust="spacing" textLength="63.0068" x="145.47" y="460.5669">«include»</text></g><!--link UC_Telecharger to UC_Auth--><g class="link" data-entity-1="ent0017" data-entity-2="ent0009" data-link-type="dependency" data-source-line="76" id="lnk45"><path d="M285.25,699.19 C260.35,693.55 235.41,683.27 217.47,665 C155.67,602.06 172.49,558.55 177.9,470.5 C186.71,327.24 125.1,259.85 217.47,150 C241.08,121.92 274.3216,110.5241 308.1316,105.2541" fill="none" id="UC_Telecharger-to-UC_Auth" style="stroke:#181818;stroke-width:1;stroke-dasharray:7,7;"/><polygon fill="#181818" points="314.06,104.33,304.5513,101.7638,309.1197,105.1001,305.7834,109.6684,314.06,104.33" style="stroke:#181818;stroke-width:1;"/><text fill="#000000" font-family="sans-serif" font-size="13" lengthAdjust="spacing" textLength="63.0068" x="145.47" y="483.5669">«include»</text></g><!--link UC_GererContenus to UC_Auth--><g class="link" data-entity-1="ent0024" data-entity-2="ent0009" data-link-type="dependency" data-source-line="77" id="lnk46"><path d="M320.28,874.73 C284.84,863.54 241.85,843.75 217.47,810 C138.85,701.16 186.71,644.48 177.9,510.5 C167.32,349.66 114.24,273.79 217.47,150 C240.97,121.83 274.211,110.4201 308.041,105.1701" fill="none" id="UC_GererContenus-to-UC_Auth" style="stroke:#181818;stroke-width:1;stroke-dasharray:7,7;"/><polygon fill="#181818" points="313.97,104.25,304.463,101.6775,309.0291,105.0168,305.6899,109.5829,313.97,104.25" style="stroke:#181818;stroke-width:1;"/><text fill="#000000" font-family="sans-serif" font-size="13" lengthAdjust="spacing" textLength="63.0068" x="145.47" y="506.5669">«include»</text></g><!--link UC_GererUsers to UC_Auth--><g class="link" data-entity-1="ent0019" data-entity-2="ent0009" data-link-type="dependency" data-source-line="78" id="lnk47"><path d="M321.11,1281.13 C285.06,1270.48 241.07,1250.93 217.47,1216 C137.76,1098.02 171.32,718.73 177.9,576.5 C186.7,386.33 97.18,297.55 217.47,150 C240.65,121.57 273.8891,110.148 307.7891,104.958" fill="none" id="UC_GererUsers-to-UC_Auth" style="stroke:#181818;stroke-width:1;stroke-dasharray:7,7;"/><polygon fill="#181818" points="313.72,104.05,304.2183,101.4581,308.7776,104.8067,305.429,109.3659,313.72,104.05" style="stroke:#181818;stroke-width:1;"/><text fill="#000000" font-family="sans-serif" font-size="13" lengthAdjust="spacing" textLength="63.0068" x="145.47" y="589.5669">«include»</text></g><!--link UC_GererRoles to UC_Auth--><g class="link" data-entity-1="ent0020" data-entity-2="ent0009" data-link-type="dependency" data-source-line="79" id="lnk48"><path d="M278.56,1363.58 C255.25,1357.43 232.79,1346.6 217.47,1328 C115.27,1203.86 170.94,766.15 177.9,605.5 C186.7,402.48 89.53,307.87 217.47,150 C240.57,121.5 273.7985,110.0738 307.7285,104.9038" fill="none" id="UC_GererRoles-to-UC_Auth" style="stroke:#181818;stroke-width:1;stroke-dasharray:7,7;"/><polygon fill="#181818" points="313.66,104,304.1602,101.4013,308.7171,104.7532,305.3652,109.3101,313.66,104" style="stroke:#181818;stroke-width:1;"/><text fill="#000000" font-family="sans-serif" font-size="13" lengthAdjust="spacing" textLength="63.0068" x="145.47" y="618.5669">«include»</text></g><!--link UC_CreerContenu to UC_GererContenus--><g class="link" data-entity-1="ent0025" data-entity-2="ent0024" data-link-type="dependency" data-source-line="82" id="lnk49"><path d="M311.62,1186.69 C279,1184.34 241.69,1175.62 217.47,1151 C182.28,1115.22 147.14,967.35 178.9,928.5 C207.89,893.04 252.6422,883.2529 295.7122,882.0829" fill="none" id="UC_CreerContenu-to-UC_GererContenus" style="stroke:#181818;stroke-width:1;stroke-dasharray:7,7;"/><polygon fill="#181818" points="301.71,881.92,292.6047,878.1659,296.7118,882.0558,292.8219,886.1629,301.71,881.92" style="stroke:#181818;stroke-width:1;"/><text fill="#000000" font-family="sans-serif" font-size="13" lengthAdjust="spacing" textLength="61.1851" x="146.47" y="941.5669">«extend»</text></g><!--link UC_ModifierContenu to UC_GererContenus--><g class="link" data-entity-1="ent0026" data-entity-2="ent0024" data-link-type="dependency" data-source-line="83" id="lnk50"><path d="M303.64,1115.23 C273.7,1111.28 240.85,1101.86 217.47,1081 C172.35,1040.73 143.09,999.24 178.9,950.5 C206.21,913.33 249.6252,898.5419 292.4252,892.1819" fill="none" id="UC_ModifierContenu-to-UC_GererContenus" style="stroke:#181818;stroke-width:1;stroke-dasharray:7,7;"/><polygon fill="#181818" points="298.36,891.3,288.8698,888.6663,293.4143,892.0349,290.0457,896.5794,298.36,891.3" style="stroke:#181818;stroke-width:1;"/><text fill="#000000" font-family="sans-serif" font-size="13" lengthAdjust="spacing" textLength="61.1851" x="146.47" y="963.5669">«extend»</text></g><!--link UC_PublierContenu to UC_GererContenus--><g class="link" data-entity-1="ent0027" data-entity-2="ent0024" data-link-type="dependency" data-source-line="84" id="lnk51"><path d="M306.91,1046.13 C276.47,1042.4 242.35,1033.37 217.47,1013 C178.52,981.11 144.99,943.7 178.9,906.5 C213.61,868.43 268.9716,867.3322 314.5216,873.9122" fill="none" id="UC_PublierContenu-to-UC_GererContenus" style="stroke:#181818;stroke-width:1;stroke-dasharray:7,7;"/><polygon fill="#181818" points="320.46,874.77,312.1244,869.5243,315.5114,874.0551,310.9806,877.4422,320.46,874.77" style="stroke:#181818;stroke-width:1;"/><text fill="#000000" font-family="sans-serif" font-size="13" lengthAdjust="spacing" textLength="61.1851" x="146.47" y="919.5669">«extend»</text></g><!--link UC_SupprimerContenu to UC_GererContenus--><g class="link" data-entity-1="ent0028" data-entity-2="ent0024" data-link-type="dependency" data-source-line="85" id="lnk52"><path d="M378.55,958.13 C378.55,943.02 378.55,927.94 378.55,912.85" fill="none" id="UC_SupprimerContenu-to-UC_GererContenus" style="stroke:#181818;stroke-width:1;stroke-dasharray:7,7;"/><polygon fill="#181818" points="378.55,906.85,374.55,915.85,378.55,911.85,382.55,915.85,378.55,906.85" style="stroke:#181818;stroke-width:1;"/><text fill="#000000" font-family="sans-serif" font-size="13" lengthAdjust="spacing" textLength="61.1851" x="336.55" y="936.9969">«extend»</text></g><?plantuml-src dLPBJkGm4Dtd5AKivhE00uoWfQXfe2LWK7_M8-DK1uiaRjcE11eXpJNc1fFzt20tcPECxVoTT6XWrQbwpvzNLS_4k5EWE0WMFIe8cK2g64yz-SJIFH4aWJsXJoJ2jNg94KoQf56CdlSPpi_F8Q0ACo7DRuzGnGNuTpm5agb7J1NRiIBtWKZGmK37AamGwMIDjn-mkhQurNKD2HEMCga4CHkOb8ruNdC4yDSlKXL_4hJadvu7O0yrzcTp08lrVJ1Vm7Qpl5ckWyrYktg3LDqU_4kUMcLI4ZDLv1AsYiLCsjDLcmDa4YcH2DlvZxc6uZCpMaXzKWHg0bejuRjG8qo9-lVhTwlS2F82gRjiMEITbKTE8RDOftITCdDob9ROn85K2Nqb_o1xcUwulC68n0C-Coc8Yzmc3oznoKL2Z83k0hicSPYiVr1ksgnFfLLug2Yb65gQqlShQJfMv679AgEwQxofBHMcsSYMPTYG7Uu6OwIFH4He-zNV5BdMfOw4d6Q9hgmzxUixcZMuk5tUBTURLR1PVh_xSBzs1ag7nrhs2WMAhSHAvwiYrz-GjNq-5DfILhnkYueYYhycyWdsA18cvMXnxusxe1ALMFQpoEttpZdxiBxcBdhwoyBM5zDCMJd2UpNMjlDHNHll6GhJww5Acwa6cWjiI6NVYI9lEGFyBG-jJtGfTUmWwJvxY1rE5Jf8MMVxlM19dzG4kxHMSmYav9JL8zzv9g1-3E3aPDQpoj6KwryJeAvDJS1QAve0rPOpX3ZcOcvSFc4ZIzXIku2EJxYfZi6RTLVNTQBNJtPBq_Mzh9tSqOmTK3VJpf-RgQUhhILBQPo525-uRfI8AAx_J_XQ5RFtrftEcWVj6voTLRpPhC4vvZgDxnhgDB8_RaTWIvix0bYQsq5W8n4-wxr3hT3UkWF6NNswStqwhATTiroWtjiTxUDOpcmVHnfCzvkqr_y0?></g></svg>